<svg width="29" height="30" viewBox="0 0 29 30" fill="none" xmlns="http://www.w3.org/2000/svg">
<path d="M23.0922 1H3.38104C2.2645 1 1.35938 1.90513 1.35938 3.02166V7.29242C1.35938 8.40895 2.2645 9.31408 3.38104 9.31408H23.0922C24.2088 9.31408 25.1139 8.40895 25.1139 7.29242V3.02166C25.1139 1.90513 24.2088 1 23.0922 1Z" stroke="#F9365E" stroke-width="2" stroke-linecap="round" stroke-linejoin="round"/>
<path d="M13.2354 19.2958V14.085C13.2354 13.6828 13.3952 13.2972 13.6795 13.0128C13.9639 12.7285 14.3495 12.5687 14.7517 12.5687H25.1228C25.793 12.5687 26.4358 12.3025 26.9097 11.8286C27.3836 11.3547 27.6498 10.7119 27.6498 10.0417V6.67054C27.6498 6.26841 27.4901 5.88275 27.2057 5.59839C26.9214 5.31404 26.5357 5.1543 26.1336 5.1543H25.1228M12.4874 19.2958H14.0036C14.2717 19.2958 14.5288 19.4023 14.7184 19.5919C14.908 19.7814 15.0145 20.0386 15.0145 20.3066V27.2308C15.0145 27.7 14.8281 28.1499 14.4964 28.4817C14.1646 28.8134 13.7147 28.9998 13.2455 28.9998C12.7764 28.9998 12.3264 28.8134 11.9947 28.4817C11.6629 28.1499 11.4766 27.7 11.4766 27.2308V20.3066C11.4766 20.0386 11.5831 19.7814 11.7726 19.5919C11.9622 19.4023 12.2193 19.2958 12.4874 19.2958Z" stroke="#F9365E" stroke-width="2" stroke-linecap="round" stroke-linejoin="round"/>
</svg>
