<svg width="36" height="30" viewBox="0 0 36 30" fill="none" xmlns="http://www.w3.org/2000/svg">
<path d="M31.6617 15H4.26172V4.34783C4.26172 2.52174 5.76172 1 7.56172 1H28.3617C30.1617 1 31.6617 2.52174 31.6617 4.34783V15Z" stroke="#F9365E" stroke-width="2" stroke-miterlimit="10" stroke-linecap="round"/>
<path d="M1.96094 29V18.6522C1.96094 16.6232 3.56094 15 5.56094 15H30.4609C32.4609 15 34.0609 16.6232 34.0609 18.6522V29" stroke="#F9365E" stroke-width="2" stroke-miterlimit="10" stroke-linecap="round"/>
<path d="M1.96094 25.4492H33.9609" stroke="#F9365E" stroke-width="2" stroke-miterlimit="10" stroke-linecap="round"/>
<path d="M17.9609 14.9996H8.96094V11.6518C8.96094 10.4344 9.96094 9.41992 11.1609 9.41992H15.8609C17.0609 9.41992 18.0609 10.4344 18.0609 11.6518V14.9996H17.9609Z" stroke="#F9365E" stroke-width="2" stroke-miterlimit="10" stroke-linecap="round"/>
<path d="M26.9609 14.9996H17.9609V11.6518C17.9609 10.4344 18.9609 9.41992 20.1609 9.41992H24.8609C26.0609 9.41992 27.0609 10.4344 27.0609 11.6518V14.9996H26.9609Z" stroke="#F9365E" stroke-width="2" stroke-miterlimit="10" stroke-linecap="round"/>
</svg>
