<svg width="23" height="30" viewBox="0 0 23 30" fill="none" xmlns="http://www.w3.org/2000/svg">
<path d="M5.21493 13.6849L3.90956 2.68765C3.88474 2.4749 3.90511 2.25926 3.96932 2.05503C4.03353 1.85081 4.14011 1.66267 4.28199 1.50308C4.42387 1.3435 4.59782 1.21612 4.79229 1.12939C4.98676 1.04267 5.19731 0.998572 5.40999 1.00004H17.0333C17.246 0.998572 17.4565 1.04267 17.651 1.12939C17.8455 1.21612 18.0194 1.3435 18.1613 1.50308C18.3032 1.66267 18.4098 1.85081 18.474 2.05503C18.5382 2.25926 18.5585 2.4749 18.5337 2.68765L17.2183 13.6849H5.21493ZM5.85511 28.3394L7.00544 24.8131H15.4178L16.5682 28.3394C16.5934 28.4171 16.5995 28.4998 16.586 28.5803C16.5724 28.6609 16.5396 28.737 16.4904 28.8019C16.4412 28.8669 16.377 28.9188 16.3034 28.9532C16.2298 28.9876 16.149 29.0034 16.068 28.9994H6.33025C6.25131 28.9993 6.1735 28.9804 6.1032 28.9443C6.03289 28.9081 5.97208 28.8557 5.92573 28.7914C5.87939 28.727 5.84883 28.6525 5.83656 28.5739C5.82428 28.4954 5.83064 28.415 5.85511 28.3394V28.3394ZM15.4178 24.798C18.2186 23.9164 20.2692 20.793 20.2692 17.0148H2.16406C2.16406 20.7729 4.22465 23.8962 7.01544 24.7778L15.4178 24.798Z" stroke="#F9365E" stroke-width="2" stroke-miterlimit="10"/>
<path d="M19.6978 13.6846H2.72797C1.80816 13.6846 1.0625 14.4345 1.0625 15.3596C1.0625 16.2847 1.80816 17.0346 2.72797 17.0346H19.6978C20.6176 17.0346 21.3633 16.2847 21.3633 15.3596C21.3633 14.4345 20.6176 13.6846 19.6978 13.6846Z" stroke="#F9365E" stroke-width="2" stroke-miterlimit="10"/>
</svg>
