<svg width="130" height="47" viewBox="0 0 130 47" fill="none" xmlns="http://www.w3.org/2000/svg">
<g clip-path="url(#clip0_265_1842)">
<path d="M8.84147 -0.00195312L6.62749 6.14699H37.3062L39.5201 -0.00195312H8.84147ZM5.52117 9.21945L3.30719 15.367H33.9859L36.1998 9.21945H5.52117ZM2.20617 18.4408L-0.0078125 24.5884H30.6709L32.8835 18.4408H2.20617Z" fill="#00AAFF"/>
<path d="M65.2124 26.9301V27.0603C66.6145 27.5813 67.9543 28.4945 68.6561 29.08C70.8236 30.9049 71.7814 33.3153 71.7814 36.4429C71.7814 41.5927 69.1031 45.3057 64.703 46.4794C63.3632 46.8701 61.9611 47.0004 59.3465 47.0004H46.0215V9.33594H57.8183C60.2419 9.33594 61.8987 9.46619 63.3645 9.85562C67.6373 11.0293 70.4429 14.0265 70.4429 18.7829C70.4429 21.325 69.5502 23.4762 68.0843 24.9091C67.4463 25.5603 66.5535 26.3432 65.2151 26.9287L65.2124 26.9301ZM53.4169 30.9049V40.8098H58.5187C60.0482 40.8098 61.4517 40.6796 62.4718 39.702C63.4919 38.7244 63.9376 37.4863 63.9376 35.8574C63.9376 34.6206 63.6179 33.4469 62.9812 32.5996C61.8974 31.2312 60.5576 30.9049 58.2627 30.9049H53.4156H53.4169ZM53.3519 24.388H57.4973C58.7721 24.388 59.4102 24.388 60.0469 24.1933C61.7701 23.6709 62.8538 22.1092 62.8538 19.9579C62.8538 17.4173 61.7064 16.3081 60.0469 15.7884C59.3452 15.5923 58.6447 15.5279 57.2413 15.5279H53.3519V24.3894V24.388ZM82.8752 47.0017V15.6568H72.2271V9.33728H101.815L99.7115 15.6568H90.2732V47.0017H82.8765H82.8752ZM104.11 47.0017V9.33728H128.087L125.983 15.6568H111.445V23.9986H117.376C122.158 23.9986 124.645 25.1723 126.367 26.6695C127.707 27.8432 130.001 30.4483 130.001 35.5982C130.001 40.6809 127.643 43.4821 125.665 44.9163C123.37 46.5438 120.947 47.0017 116.036 47.0017H104.112H104.11ZM111.443 40.6796H116.991C119.095 40.6796 120.37 40.1585 121.262 38.9849C121.708 38.3994 122.346 37.3547 122.346 35.4008C122.346 33.4469 121.708 32.0772 120.433 31.0996C119.669 30.5141 118.648 30.1892 116.926 30.1892H111.442V40.6796H111.443Z" fill="#0A2896"/>
</g>
<defs>
<clipPath id="clip0_265_1842">
<rect width="130" height="47" fill="white"/>
</clipPath>
</defs>
</svg>
