<svg width="56" height="56" viewBox="0 0 56 56" fill="none" xmlns="http://www.w3.org/2000/svg">
<g clip-path="url(#clip0_265_1847)">
<path d="M55.9992 32.9707H0.0976562V36.2185H55.9992V32.9707Z" fill="black"/>
<path d="M0.0976562 56.001H3.54229V52.2612H23.1275V39.4668H0.0976562V56.001ZM3.54229 42.7147H19.6828V49.0134H3.54229V42.7147Z" fill="black"/>
<path d="M26.377 52.2612H39.3681V56.001H42.9112V52.2612H55.9024V39.4668H26.377V52.2612ZM42.9112 42.7147H52.5561V49.0134H42.9112V42.7147ZM29.8215 42.7147H39.3681V49.0134H29.8215V42.7147Z" fill="black"/>
<path d="M29.7212 0H16.5332V29.6239H29.7212V0ZM26.2766 26.3761H19.9778V3.34622H26.2766V26.3761Z" fill="black"/>
<path d="M36.5129 9.94024L42.8117 3.34622V29.7223H46.2564V9.94024L52.4567 3.34622V29.7223H55.9013V0H51.0789L46.2564 5.11775V0H41.4338L33.0684 8.66081V29.7223H36.5129V9.94024Z" fill="black"/>
<path d="M9.7434 29.7223H13.188V26.4745V0H8.36555L0 8.66081V26.3761V29.6239H3.44464H9.7434V29.7223ZM3.54305 9.94024L9.84182 3.34622V26.3761H3.54305V9.94024Z" fill="black"/>
</g>
<defs>
<clipPath id="clip0_265_1847">
<rect width="56" height="56" fill="white"/>
</clipPath>
</defs>
</svg>
