<svg width="176" height="28" viewBox="0 0 176 28" fill="none" xmlns="http://www.w3.org/2000/svg">
<path d="M78.7102 8.85329L82.3836 6.14258H70.0859V22.3803H82.3836V19.6696H73.5995V15.5238H81.1059V12.8131H73.5995V8.85329H78.7102Z" fill="#21A038"/>
<path d="M60.796 12.4676H56.537V8.85329H63.3513L67.0246 6.14258H53.0234V22.3803H60.3435C64.4427 22.3803 66.8117 20.52 66.8117 17.2777C66.8117 14.1684 64.6822 12.4676 60.796 12.4676ZM60.2104 19.6696H56.537V15.1783H60.2104C62.4463 15.1783 63.4844 15.9224 63.4844 17.4372C63.4844 18.952 62.3664 19.6696 60.2104 19.6696Z" fill="#21A038"/>
<path d="M92.3394 6.14258H85.6582V22.3803H89.1718V17.7827H92.366C96.6249 17.7827 99.2867 15.5503 99.2867 11.9626C99.2867 8.37493 96.6249 6.14258 92.3394 6.14258ZM92.2595 15.072H89.1452V8.85329H92.2595C94.5221 8.85329 95.7465 9.96946 95.7465 11.9626C95.7465 13.9558 94.5221 15.072 92.2595 15.072Z" fill="#21A038"/>
<path d="M47.0082 18.872C46.0766 19.3769 45.0385 19.6427 43.9737 19.6427C40.8062 19.6427 38.517 17.3838 38.517 14.2744C38.517 11.1651 40.8062 8.90615 43.9737 8.90615C45.1183 8.87958 46.2363 9.25164 47.1679 9.91603L49.6967 8.05573L49.537 7.89628C48.073 6.59408 46.1032 5.92969 43.8673 5.92969C41.445 5.92969 39.2357 6.75353 37.6386 8.24176C36.0415 9.78315 35.1365 11.9358 35.1897 14.1681C35.1631 16.427 36.0415 18.6062 37.6386 20.2008C39.3156 21.7687 41.5515 22.6457 43.8407 22.5926C46.3694 22.5926 48.5787 21.7156 50.0693 20.121L47.8068 18.4468L47.0082 18.872Z" fill="#21A038"/>
<path d="M141.529 6.16915V22.4068H145.043V15.7629H152.523V22.4068H156.036V6.16915H152.523V12.8396H145.043V6.16915H141.529ZM135.487 22.4068H139.187L132.319 6.16915H128.753L121.752 22.4068H125.292L126.703 19.138H134.156L135.487 22.4068ZM127.768 16.4273L130.483 9.91631L133.038 16.4273H127.768ZM163.915 15.8427H166.098L171.475 22.3803H176L168.813 13.9824L175.095 6.14258H171.076L165.858 13.1054H163.915V6.14258H160.402V22.3803H163.915V15.8427ZM110.146 12.4941V8.87986H119.33V6.16915H106.633V22.4068H113.953C118.052 22.4068 120.421 20.5465 120.421 17.3043C120.421 14.195 118.292 12.4941 114.405 12.4941H110.146ZM110.146 19.6961V15.2049H113.82C116.056 15.2049 117.094 15.949 117.094 17.4638C117.094 18.9786 116.002 19.7227 113.82 19.7227H110.146V19.6961Z" fill="#21A038"/>
<path d="M24.1953 6.03516C24.8341 6.859 25.3665 7.76257 25.819 8.71929L13.5214 17.7816L8.35742 14.5393V10.6593L13.4947 13.875L24.1953 6.03516Z" fill="#21A038"/>
<path d="M3.11433 14.273C3.11433 14.087 3.11433 13.9275 3.14095 13.7415L0.0266182 13.582C0.0266182 13.7946 0 14.0338 0 14.2464C0 17.967 1.51724 21.3421 3.96612 23.7871L6.17543 21.5813C4.28554 19.721 3.11433 17.1432 3.11433 14.273Z" fill="url(#paint0_linear_265_1823)"/>
<path d="M13.4961 3.90817C13.6825 3.90817 13.8422 3.90817 14.0285 3.93475L14.1882 0.825404C13.9753 0.825404 13.7357 0.798828 13.5227 0.798828C9.79619 0.798828 6.41567 2.31364 3.9668 4.75859L6.17611 6.96437C8.03939 5.0775 10.648 3.90817 13.4961 3.90817Z" fill="url(#paint1_linear_265_1823)"/>
<path d="M13.4948 24.6363C13.3085 24.6363 13.1488 24.6363 12.9624 24.6097L12.8027 27.719C13.0157 27.719 13.2552 27.7456 13.4682 27.7456C17.1947 27.7456 20.5753 26.2308 23.0241 23.7859L20.8148 21.5801C18.9515 23.4935 16.3696 24.6363 13.4948 24.6363Z" fill="url(#paint2_linear_265_1823)"/>
<path d="M19.3521 5.7165L21.9873 3.77648C19.6715 1.91619 16.7169 0.773438 13.4961 0.773438V3.88278C15.6788 3.90936 17.7018 4.57375 19.3521 5.7165Z" fill="url(#paint3_linear_265_1823)"/>
<path d="M27.0168 14.2738C27.0168 13.45 26.937 12.6527 26.8039 11.8555L23.9025 14.0081C23.9025 14.0878 23.9025 14.1941 23.9025 14.2738C23.9025 17.33 22.5716 20.0673 20.4688 21.9542L22.5716 24.2663C25.2867 21.8213 27.0168 18.2336 27.0168 14.2738Z" fill="#21A038"/>
<path d="M13.4948 24.6372C10.4337 24.6372 7.69201 23.3085 5.80212 21.209L3.48633 23.3085C5.96182 26.0457 9.52867 27.7466 13.4948 27.7466V24.6372Z" fill="url(#paint4_linear_265_1823)"/>
<path d="M6.54809 6.59333L4.44525 4.28125C1.70357 6.75278 0 10.3139 0 14.2737H3.11433C3.11433 11.2441 4.44525 8.48019 6.54809 6.59333Z" fill="url(#paint5_linear_265_1823)"/>
<defs>
<linearGradient id="paint0_linear_265_1823" x1="3.64397" y1="23.4088" x2="0.465466" y2="14.2358" gradientUnits="userSpaceOnUse">
<stop offset="0.1444" stop-color="#F2E913"/>
<stop offset="0.3037" stop-color="#E7E518"/>
<stop offset="0.5823" stop-color="#CADB26"/>
<stop offset="0.891" stop-color="#A3CD39"/>
</linearGradient>
<linearGradient id="paint1_linear_265_1823" x1="4.85454" y1="4.39809" x2="12.9312" y2="1.32514" gradientUnits="userSpaceOnUse">
<stop offset="0.0592" stop-color="#0FA8E0"/>
<stop offset="0.5385" stop-color="#0099F9"/>
<stop offset="0.9234" stop-color="#0291EB"/>
</linearGradient>
<linearGradient id="paint2_linear_265_1823" x1="12.6199" y1="25.0933" x2="22.2461" y2="22.9211" gradientUnits="userSpaceOnUse">
<stop offset="0.1226" stop-color="#A3CD39"/>
<stop offset="0.2846" stop-color="#86C339"/>
<stop offset="0.8693" stop-color="#21A038"/>
</linearGradient>
<linearGradient id="paint3_linear_265_1823" x1="12.8562" y1="2.76286" x2="20.8616" y2="5.22891" gradientUnits="userSpaceOnUse">
<stop offset="0.0566" stop-color="#0291EB"/>
<stop offset="0.79" stop-color="#0C8ACB"/>
</linearGradient>
<linearGradient id="paint4_linear_265_1823" x1="4.27819" y1="23.8135" x2="12.8744" y2="27.0202" gradientUnits="userSpaceOnUse">
<stop offset="0.1324" stop-color="#F2E913"/>
<stop offset="0.2977" stop-color="#EBE716"/>
<stop offset="0.5306" stop-color="#D9E01F"/>
<stop offset="0.8023" stop-color="#BBD62D"/>
<stop offset="0.9829" stop-color="#A3CD39"/>
</linearGradient>
<linearGradient id="paint5_linear_265_1823" x1="2.36972" y1="14.6492" x2="5.80681" y2="5.72243" gradientUnits="userSpaceOnUse">
<stop offset="0.0698" stop-color="#A3CD39"/>
<stop offset="0.2599" stop-color="#81C55F"/>
<stop offset="0.9216" stop-color="#0FA8E0"/>
</linearGradient>
</defs>
</svg>
