<svg width="64" height="58" viewBox="0 0 64 58" fill="none" xmlns="http://www.w3.org/2000/svg">
<path d="M33.7959 12.272C33.7959 7.41333 29.8572 3.47461 24.9986 3.47461C20.1399 3.47461 16.2012 7.41333 16.2012 12.272V18.3643C16.2012 23.223 20.1399 27.1617 24.9986 27.1617C29.8572 27.1617 33.7959 23.223 33.7959 18.3643V12.272Z" stroke="#F9365E" stroke-width="2" stroke-miterlimit="10"/>
<path d="M48.7101 48.0424C49.0186 49.0563 49.0793 50.1295 48.8871 51.1717C48.6949 52.214 48.2555 53.1949 47.6056 54.0321C46.9557 54.8693 46.1145 55.5383 45.1524 55.983C44.1904 56.4277 43.1357 56.635 42.077 56.5876H7.91499C6.85658 56.6344 5.80239 56.4267 4.84092 55.9817C3.87945 55.5367 3.03877 54.8676 2.38947 54.0304C1.74016 53.1932 1.30119 52.2125 1.10941 51.1706C0.917625 50.1286 0.978626 49.0559 1.28729 48.0424L5.61991 35.3668C6.51463 32.9255 8.14754 30.8234 10.2918 29.3527C12.436 27.882 14.9851 27.1156 17.5848 27.1601H32.4179C35.0173 27.1149 37.5662 27.8804 39.7106 29.3501C41.855 30.8198 43.4885 32.9209 44.3842 35.3615L48.7101 48.0424Z" stroke="#F9365E" stroke-width="2" stroke-miterlimit="10"/>
<path d="M15.5948 40.5625H34.4032C35.1997 40.5625 35.9635 40.8789 36.5267 41.4421C37.0898 42.0052 37.4062 42.7691 37.4062 43.5655V56.5876H12.5918V43.5655C12.5918 42.7691 12.9082 42.0052 13.4714 41.4421C14.0345 40.8789 14.7984 40.5625 15.5948 40.5625V40.5625Z" stroke="#F9365E" stroke-width="2" stroke-miterlimit="10"/>
<path d="M39 4.53176V16L42.5257 13.509H52.3668C53.3304 13.509 54.2545 13.1359 54.9359 12.4717C55.6172 11.8075 56 10.9066 56 9.96734V4.53176C56 4.06713 55.906 3.60706 55.7232 3.17792C55.5405 2.74878 55.2727 2.359 54.9352 2.03092C54.5977 1.70284 54.1971 1.4429 53.7564 1.266C53.3156 1.08909 52.8434 0.998707 52.3668 1.00001H42.623C41.6622 1.00001 40.7406 1.37211 40.0612 2.03444C39.3817 2.69677 39 3.59508 39 4.53176V4.53176Z" stroke="#F9365E" stroke-width="2" stroke-miterlimit="10"/>
<path d="M56.8338 7H59.3782C60.3387 7 61.26 7.37212 61.9392 8.0345C62.6184 8.69688 63 9.59526 63 10.532V22L59.4687 19.5055H49.6332C48.6699 19.5044 47.7465 19.1307 47.0655 18.4665C46.3844 17.8023 46.0012 16.9018 46 15.9625V14.0971" stroke="#F9365E" stroke-width="2" stroke-miterlimit="10"/>
</svg>
