<svg width="65" height="65" viewBox="0 0 65 65" fill="none" xmlns="http://www.w3.org/2000/svg">
<path d="M22.1043 43.2086C33.7599 43.2086 43.2086 33.7599 43.2086 22.1043C43.2086 10.4487 33.7599 1 22.1043 1C10.4487 1 1 10.4487 1 22.1043C1 33.7599 10.4487 43.2086 22.1043 43.2086Z" stroke="#F9365E" stroke-width="2" stroke-miterlimit="10"/>
<path d="M36.918 36.916L44.3508 44.3488" stroke="#F9365E" stroke-width="2" stroke-miterlimit="10"/>
<path d="M40.5254 48.1738L48.1757 40.5235L60.4599 52.8077C61.4734 53.8224 62.0423 55.1981 62.0417 56.6323C62.041 58.0664 61.4709 59.4416 60.4566 60.4555C59.4422 61.4699 58.0664 62.0398 56.6318 62.0398C55.1973 62.0398 53.8215 61.4699 52.8071 60.4555L40.5254 48.1738Z" stroke="#F9365E" stroke-width="2" stroke-miterlimit="10"/>
<path d="M13.1914 20.8086V28.5286" stroke="#F9365E" stroke-width="2" stroke-miterlimit="10"/>
<path d="M19.1328 14.874V28.5289" stroke="#F9365E" stroke-width="2" stroke-miterlimit="10"/>
<path d="M25.0762 23.1826V28.5287" stroke="#F9365E" stroke-width="2" stroke-miterlimit="10"/>
<path d="M31.0156 17.248V28.529" stroke="#F9365E" stroke-width="2" stroke-miterlimit="10"/>
<path d="M43.8496 51.4977L51.4996 43.8477" stroke="#F9365E" stroke-width="2" stroke-miterlimit="10"/>
</svg>
