<svg width="67" height="66" viewBox="0 0 67 66" fill="none" xmlns="http://www.w3.org/2000/svg">
<path d="M46.6367 11.9528V1H59.8653C60.6054 0.999362 61.3384 1.14467 62.0223 1.42761C62.7063 1.71055 63.3277 2.12557 63.851 2.64892C64.3744 3.17227 64.7894 3.79368 65.0723 4.47759C65.3553 5.1615 65.5006 5.8945 65.4999 6.63462V58.8066" stroke="#F9365E" stroke-width="2" stroke-miterlimit="10"/>
<path d="M65.5 58.8069C65.4977 60.2586 64.92 61.6503 63.8935 62.6768C62.867 63.7034 61.4753 64.2811 60.0236 64.2833H1V11.9531H46.6368V53.3305H60.0236C60.743 53.3295 61.4556 53.4705 62.1205 53.7454C62.7853 54.0203 63.3894 54.4236 63.8981 54.9323C64.4069 55.4411 64.8102 56.0452 65.0851 56.71C65.36 57.3749 65.501 58.0875 65.5 58.8069V58.8069Z" stroke="#F9365E" stroke-width="2" stroke-miterlimit="10"/>
<path d="M40.6539 32.1113H25.8457V44.1254H40.6539V32.1113Z" stroke="#F9365E" stroke-width="2" stroke-miterlimit="10"/>
<path d="M9.15234 31.0259V18.5664H21.6118" stroke="#F9365E" stroke-width="2" stroke-miterlimit="10"/>
<path d="M21.6118 57.6684H9.15234V45.209" stroke="#F9365E" stroke-width="2" stroke-miterlimit="10"/>
<path d="M33.25 34.752V41.4843" stroke="#F9365E" stroke-width="2" stroke-miterlimit="10"/>
<path d="M36.6171 38.1182H29.8848" stroke="#F9365E" stroke-width="2" stroke-miterlimit="10"/>
</svg>
