<svg width="17" height="18" viewBox="0 0 17 18" fill="none" xmlns="http://www.w3.org/2000/svg">
<path d="M13.1511 9.99702L7.78417 15.364C7.59664 15.5515 7.49128 15.8059 7.49128 16.0711C7.49128 16.3363 7.59664 16.5906 7.78417 16.7782C7.97171 16.9657 8.22606 17.0711 8.49128 17.0711C8.7565 17.0711 9.01085 16.9657 9.19839 16.7782L16.2695 9.70711C16.3607 9.61359 16.4328 9.50308 16.4816 9.38184C16.5826 9.1373 16.5826 8.8627 16.4816 8.61816C16.4328 8.49692 16.3607 8.38641 16.2695 8.29289L9.19839 1.22183C9.01085 1.03429 8.7565 0.928932 8.49128 0.928932C8.22606 0.928932 7.97171 1.03429 7.78417 1.22183C7.59664 1.40936 7.49128 1.66372 7.49128 1.92893C7.49128 2.19415 7.59664 2.4485 7.78417 2.63604L13.1511 8.00298L1.42021 7.99591C1.2882 7.99537 1.15739 8.02097 1.03532 8.07124C0.913258 8.12151 0.802353 8.19545 0.709007 8.28879C0.615661 8.38214 0.54172 8.49304 0.491451 8.61511C0.441182 8.73718 0.415582 8.86799 0.416123 9C0.415582 9.13201 0.441182 9.26282 0.491451 9.38489C0.54172 9.50696 0.615661 9.61786 0.709007 9.71121C0.802353 9.80455 0.913258 9.87849 1.03532 9.92876C1.15739 9.97903 1.2882 10.0046 1.42021 10.0041L13.1511 9.99702Z" fill="#F9365E"/>
</svg>
