<svg width="17" height="18" viewBox="0 0 17 18" fill="none" xmlns="http://www.w3.org/2000/svg">
<path d="M3.84889 9.99702L9.21583 15.364C9.40336 15.5515 9.50872 15.8059 9.50872 16.0711C9.50872 16.3363 9.40336 16.5906 9.21583 16.7782C9.02829 16.9657 8.77394 17.0711 8.50872 17.0711C8.2435 17.0711 7.98915 16.9657 7.80161 16.7782L0.730544 9.70711C0.639259 9.61359 0.567189 9.50308 0.518412 9.38184C0.417385 9.1373 0.417385 8.8627 0.518412 8.61816C0.567189 8.49692 0.639259 8.38641 0.730544 8.29289L7.80161 1.22183C7.98915 1.03429 8.2435 0.928932 8.50872 0.928932C8.77394 0.928932 9.02829 1.03429 9.21583 1.22183C9.40336 1.40936 9.50872 1.66372 9.50872 1.92893C9.50872 2.19415 9.40336 2.4485 9.21583 2.63604L3.84889 8.00298L15.5798 7.99591C15.7118 7.99537 15.8426 8.02097 15.9647 8.07124C16.0867 8.12151 16.1976 8.19545 16.291 8.28879C16.3843 8.38214 16.4583 8.49304 16.5085 8.61511C16.5588 8.73718 16.5844 8.86799 16.5839 9C16.5844 9.13201 16.5588 9.26282 16.5085 9.38489C16.4583 9.50696 16.3843 9.61786 16.291 9.71121C16.1976 9.80455 16.0867 9.87849 15.9647 9.92876C15.8426 9.97903 15.7118 10.0046 15.5798 10.0041L3.84889 9.99702Z" fill="#F9365E"/>
</svg>
